<svg xmlns="http://www.w3.org/2000/svg" width="180" height="180" viewBox="0 0 64 64">
  <defs>
    <linearGradient id="bg" x1="6" y1="4" x2="58" y2="60" gradientUnits="userSpaceOnUse">
      <stop offset="0" stop-color="#07111f"/>
      <stop offset="0.34" stop-color="#0f2d5f"/>
      <stop offset="0.7" stop-color="#1d4ed8"/>
      <stop offset="1" stop-color="#7dd3fc"/>
    </linearGradient>
    <linearGradient id="stroke" x1="14" y1="10" x2="45" y2="54" gradientUnits="userSpaceOnUse">
      <stop offset="0" stop-color="#f8fbff"/>
      <stop offset="0.58" stop-color="#dcebff"/>
      <stop offset="1" stop-color="#9ad9ff"/>
    </linearGradient>
    <radialGradient id="glow" cx="0" cy="0" r="1" gradientUnits="userSpaceOnUse" gradientTransform="translate(30 33) rotate(90) scale(22)">
      <stop offset="0" stop-color="#a5f3fc" stop-opacity="0.7"/>
      <stop offset="1" stop-color="#a5f3fc" stop-opacity="0"/>
    </radialGradient>
    <radialGradient id="beacon" cx="0" cy="0" r="1" gradientUnits="userSpaceOnUse" gradientTransform="translate(49 16) rotate(90) scale(8)">
      <stop offset="0" stop-color="#fff8d6"/>
      <stop offset="1" stop-color="#f59e0b"/>
    </radialGradient>
  </defs>

  <rect width="64" height="64" rx="14" fill="url(#bg)"/>
  <rect x="0.5" y="0.5" width="63" height="63" rx="13.5" fill="none" stroke="rgba(15,23,42,0.12)"/>
  <path d="M0 0h64v64H0z" fill="url(#glow)"/>
  <path d="M45.5 16.5C42.2 12.6 36.8 10.2 30.4 10.2C21.4 10.2 15.2 15.1 15.2 22C15.2 29.4 21.7 31.7 28.8 33.6C35.7 35.4 42.7 37.2 42.7 43.4C42.7 49 37.3 53 29.2 53C22.7 53 16.8 50.5 12.5 45.8" fill="none" stroke="rgba(7,17,31,0.28)" stroke-width="10" stroke-linecap="round" stroke-linejoin="round"/>
  <path d="M45.5 16.5C42.2 12.6 36.8 10.2 30.4 10.2C21.4 10.2 15.2 15.1 15.2 22C15.2 29.4 21.7 31.7 28.8 33.6C35.7 35.4 42.7 37.2 42.7 43.4C42.7 49 37.3 53 29.2 53C22.7 53 16.8 50.5 12.5 45.8" fill="none" stroke="url(#stroke)" stroke-width="7.5" stroke-linecap="round" stroke-linejoin="round"/>
  <circle cx="48.8" cy="16" r="8.8" fill="none" stroke="rgba(253,224,71,0.24)" stroke-width="1.5"/>
  <circle cx="48.8" cy="16" r="5.6" fill="url(#beacon)"/>
  <circle cx="48.8" cy="16" r="1.8" fill="#fffdf5"/>
  <path d="M48.8 7.2V10.2M48.8 21.8V24.8M57.6 16H54.6M43 16H40M55 9.8L53 11.8M55 22.2L53 20.2M42.6 9.8L44.6 11.8M42.6 22.2L44.6 20.2" stroke="rgba(255,248,214,0.85)" stroke-width="1.4" stroke-linecap="round"/>
  <circle cx="29.8" cy="33.8" r="4.2" fill="#a5f3fc" fill-opacity="0.95"/>
  <circle cx="29.8" cy="33.8" r="1.6" fill="#f8fafc"/>
</svg>
